<svg xmlns="http://www.w3.org/2000/svg" viewBox="0 0 32 32">
  <rect width="32" height="32" rx="8" fill="#25D366" />
  <path
    fill="#fff"
    d="M16 7c-4.4 0-8 3.3-8 7.4 0 1.3.4 2.5 1 3.6L8 25l7-1.9c.9.3 1.9.5 3 .5 4.4 0 8-3.3 8-7.4S20.4 7 16 7zm0 2c3.3 0 6 2.5 6 5.4S19.3 20 16 20c-.9 0-1.7-.2-2.4-.5l-.4-.2-3.1.8.8-3-.2-.3C10.3 16 10 15.2 10 14.4 10 11.5 12.7 9 16 9zm3.1 6.2c-.2-.1-1.3-.7-1.5-.8-.2-.1-.4-.1-.6.1-.2.3-.7.8-.8.9-.1.1-.3.2-.6.1-.3-.1-1.1-.4-2.1-1.3-.8-.7-1.3-1.5-1.4-1.7-.1-.2 0-.3.1-.4.1-.1.2-.3.3-.4.1-.1.1-.2.2-.3.1-.1.1-.2.2-.3.1-.1.1-.2 0-.4-.1-.1-.6-1.4-.8-1.9-.2-.5-.4-.4-.6-.4h-.5c-.2 0-.4.1-.6.3-.2.3-.8.8-.8 2 0 1.2.9 2.3 1 2.4.1.2 1.7 2.6 4.1 3.6.6.3 1.1.4 1.5.6.6.2 1.1.2 1.5.1.5-.1 1.3-.5 1.5-1 .2-.5.2-1 .1-1.1-.1-.1-.2-.1-.4-.2z"
  />
</svg>

